<svg width="304" height="88" viewBox="0 0 304 88" fill="none" xmlns="http://www.w3.org/2000/svg">
<path d="M5.7553 69.8253V49.3497L38.7376 2.31119H65.1899V48.575H73.1588V69.8253H65.1899V82H40.3978V69.8253H5.7553ZM42.39 30.313L30.4367 48.575H42.39V30.313Z" fill="#FFD339"/>
<path d="M108.832 10.6358V35H101.226V22.8523L97.4754 35H90.9369L87.186 22.8523V35H79.5463V10.6358H88.9066L94.275 25.2612L99.5057 10.6358H108.832ZM122.431 35.2409C120.136 35.2409 118.026 34.7018 116.099 33.6235C114.194 32.5452 112.68 31.054 111.556 29.1498C110.432 27.2457 109.87 25.1006 109.87 22.7146C109.87 20.3287 110.432 18.1836 111.556 16.2795C112.68 14.3753 114.194 12.8955 116.099 11.8402C118.026 10.7619 120.136 10.2228 122.431 10.2228C124.725 10.2228 126.824 10.7619 128.728 11.8402C130.632 12.8955 132.135 14.3753 133.236 16.2795C134.36 18.1836 134.922 20.3287 134.922 22.7146C134.922 25.1006 134.36 27.2457 133.236 29.1498C132.135 31.054 130.621 32.5452 128.694 33.6235C126.79 34.7018 124.702 35.2409 122.431 35.2409ZM122.431 28.1174C123.945 28.1174 125.115 27.6357 125.941 26.6721C126.767 25.6856 127.18 24.3665 127.18 22.7146C127.18 21.0399 126.767 19.7207 125.941 18.7572C125.115 17.7707 123.945 17.2774 122.431 17.2774C120.893 17.2774 119.712 17.7707 118.886 18.7572C118.06 19.7207 117.647 21.0399 117.647 22.7146C117.647 24.3665 118.06 25.6856 118.886 26.6721C119.712 27.6357 120.893 28.1174 122.431 28.1174ZM146.109 10.6358C148.656 10.6358 150.881 11.152 152.786 12.1843C154.713 13.2167 156.192 14.6506 157.225 16.4859C158.257 18.3213 158.773 20.409 158.773 22.7491C158.773 25.0662 158.257 27.1539 157.225 29.0122C156.192 30.8705 154.713 32.3387 152.786 33.417C150.881 34.4723 148.656 35 146.109 35H135.958V10.6358H146.109ZM145.421 28.1863C147.142 28.1863 148.507 27.716 149.516 26.7753C150.526 25.8347 151.031 24.4926 151.031 22.7491C151.031 21.0055 150.526 19.6634 149.516 18.7228C148.507 17.7821 147.142 17.3118 145.421 17.3118H143.597V28.1863H145.421ZM167.451 16.7268V19.7207H175.022V25.4677H167.451V28.9089H176.054V35H159.811V10.6358H176.054V16.7268H167.451ZM184.852 29.2187H192.217V35H177.213V10.6358H184.852V29.2187ZM200.54 10.6358V35H192.9V10.6358H200.54ZM225.636 35H217.996L209.909 22.7491V35H202.27V10.6358H209.909L217.996 23.0932V10.6358H225.636V35ZM242.302 18.9636C242.004 18.4819 241.579 18.1148 241.029 17.8624C240.478 17.5871 239.813 17.4495 239.033 17.4495C237.564 17.4495 236.429 17.9313 235.626 18.8948C234.823 19.8354 234.421 21.1317 234.421 22.7835C234.421 24.6876 234.869 26.11 235.763 27.0507C236.658 27.9913 238.035 28.4616 239.893 28.4616C241.659 28.4616 243.082 27.7504 244.16 26.328H238.069V20.9252H250.492V28.5648C249.437 30.3772 247.98 31.9373 246.122 33.2449C244.263 34.5297 241.912 35.1721 239.067 35.1721C236.543 35.1721 234.341 34.6559 232.46 33.6235C230.601 32.5682 229.168 31.0999 228.158 29.2187C227.172 27.3374 226.678 25.1924 226.678 22.7835C226.678 20.3746 227.172 18.2295 228.158 16.3483C229.168 14.467 230.601 13.0102 232.46 11.9779C234.318 10.9225 236.498 10.3949 238.998 10.3949C242.187 10.3949 244.78 11.1634 246.775 12.7005C248.794 14.2376 249.987 16.3253 250.354 18.9636H242.302ZM94.1757 82.35C89.9424 82.35 86.4424 81.3667 83.6757 79.4C80.9424 77.4 79.459 74.4833 79.2257 70.65H91.0257C91.1924 72.6833 92.0924 73.7 93.7257 73.7C94.3257 73.7 94.8257 73.5667 95.2257 73.3C95.659 73 95.8757 72.55 95.8757 71.95C95.8757 71.1167 95.4257 70.45 94.5257 69.95C93.6257 69.4167 92.2257 68.8167 90.3257 68.15C88.059 67.35 86.1757 66.5667 84.6757 65.8C83.209 65.0333 81.9424 63.9167 80.8757 62.45C79.809 60.9833 79.2924 59.1 79.3257 56.8C79.3257 54.5 79.909 52.55 81.0757 50.95C82.2757 49.3167 83.8924 48.0833 85.9257 47.25C87.9924 46.4167 90.309 46 92.8757 46C97.209 46 100.642 47 103.176 49C105.742 51 107.092 53.8167 107.226 57.45H95.2757C95.2424 56.45 94.9924 55.7333 94.5257 55.3C94.059 54.8667 93.4924 54.65 92.8257 54.65C92.359 54.65 91.9757 54.8167 91.6757 55.15C91.3757 55.45 91.2257 55.8833 91.2257 56.45C91.2257 57.25 91.659 57.9167 92.5257 58.45C93.4257 58.95 94.8424 59.5667 96.7757 60.3C99.009 61.1333 100.842 61.9333 102.276 62.7C103.742 63.4667 105.009 64.5333 106.076 65.9C107.142 67.2667 107.676 68.9833 107.676 71.05C107.676 73.2167 107.142 75.1667 106.076 76.9C105.009 78.6 103.459 79.9333 101.426 80.9C99.3924 81.8667 96.9757 82.35 94.1757 82.35ZM120.176 55.45V59.8H131.176V68.15H120.176V73.15H132.676V82H109.076V46.6H132.676V55.45H120.176ZM152.159 82L145.509 69.3H145.459V82H134.359V46.6H150.859C153.726 46.6 156.176 47.1167 158.209 48.15C160.242 49.15 161.759 50.5333 162.759 52.3C163.792 54.0333 164.309 56 164.309 58.2C164.309 60.5667 163.642 62.6667 162.309 64.5C161.009 66.3333 159.126 67.65 156.659 68.45L164.359 82H152.159ZM145.459 61.9H149.859C150.926 61.9 151.726 61.6667 152.259 61.2C152.792 60.7 153.059 59.9333 153.059 58.9C153.059 57.9667 152.776 57.2333 152.209 56.7C151.676 56.1667 150.892 55.9 149.859 55.9H145.459V61.9ZM201.005 46.6L189.105 82H174.755L162.855 46.6H174.655L181.955 70.95L189.205 46.6H201.005ZM212.09 46.6V82H200.99V46.6H212.09ZM213.603 64.25C213.603 60.75 214.303 57.6333 215.703 54.9C217.136 52.1667 219.17 50.05 221.803 48.55C224.436 47.0167 227.536 46.25 231.103 46.25C234.17 46.25 236.903 46.8333 239.303 48C241.736 49.1333 243.703 50.75 245.203 52.85C246.736 54.95 247.753 57.4 248.253 60.2H236.553C236.02 59.0333 235.253 58.1333 234.253 57.5C233.286 56.8333 232.17 56.5 230.903 56.5C229.036 56.5 227.553 57.2 226.453 58.6C225.386 60 224.853 61.8833 224.853 64.25C224.853 66.6167 225.386 68.5 226.453 69.9C227.553 71.3 229.036 72 230.903 72C232.17 72 233.286 71.6833 234.253 71.05C235.253 70.3833 236.02 69.4667 236.553 68.3H248.253C247.753 71.1 246.736 73.55 245.203 75.65C243.703 77.75 241.736 79.3833 239.303 80.55C236.903 81.6833 234.17 82.25 231.103 82.25C227.536 82.25 224.436 81.5 221.803 80C219.17 78.4667 217.136 76.3333 215.703 73.6C214.303 70.8667 213.603 67.75 213.603 64.25ZM260.85 55.45V59.8H271.85V68.15H260.85V73.15H273.35V82H249.75V46.6H273.35V55.45H260.85ZM288.883 82.35C284.649 82.35 281.149 81.3667 278.383 79.4C275.649 77.4 274.166 74.4833 273.933 70.65H285.733C285.899 72.6833 286.799 73.7 288.433 73.7C289.033 73.7 289.533 73.5667 289.933 73.3C290.366 73 290.583 72.55 290.583 71.95C290.583 71.1167 290.133 70.45 289.233 69.95C288.333 69.4167 286.933 68.8167 285.033 68.15C282.766 67.35 280.883 66.5667 279.383 65.8C277.916 65.0333 276.649 63.9167 275.583 62.45C274.516 60.9833 273.999 59.1 274.033 56.8C274.033 54.5 274.616 52.55 275.783 50.95C276.983 49.3167 278.599 48.0833 280.633 47.25C282.699 46.4167 285.016 46 287.583 46C291.916 46 295.349 47 297.883 49C300.449 51 301.799 53.8167 301.933 57.45H289.983C289.949 56.45 289.699 55.7333 289.233 55.3C288.766 54.8667 288.199 54.65 287.533 54.65C287.066 54.65 286.683 54.8167 286.383 55.15C286.083 55.45 285.933 55.8833 285.933 56.45C285.933 57.25 286.366 57.9167 287.233 58.45C288.133 58.95 289.549 59.5667 291.483 60.3C293.716 61.1333 295.549 61.9333 296.983 62.7C298.449 63.4667 299.716 64.5333 300.783 65.9C301.849 67.2667 302.383 68.9833 302.383 71.05C302.383 73.2167 301.849 75.1667 300.783 76.9C299.716 78.6 298.166 79.9333 296.133 80.9C294.099 81.8667 291.683 82.35 288.883 82.35Z" fill="#FFD339"/>
</svg>
