<svg width="358" height="90" viewBox="0 0 358 90" fill="none" xmlns="http://www.w3.org/2000/svg">
<path d="M1.19 27.763V3.011H41.531V90H13.804V27.763H1.19Z" fill="#3FB4C3"/>
<path d="M68.35 24.6735C69.6813 24.9856 70.711 25.6304 71.4391 26.6081C72.1879 27.565 72.5623 28.6778 72.5623 29.9467C72.5623 31.8813 71.9175 33.379 70.6278 34.4399C69.3589 35.48 67.5284 36 65.1362 36H53.5601V13.9087H64.8242C67.0707 13.9087 68.8389 14.3976 70.1286 15.3752C71.4183 16.3529 72.0631 17.7778 72.0631 19.65C72.0631 20.9397 71.7199 22.0317 71.0334 22.9262C70.3678 23.7999 69.4733 24.3823 68.35 24.6735ZM60.487 22.5206H63.1704C63.7945 22.5206 64.2521 22.3958 64.5433 22.1462C64.8554 21.8965 65.0114 21.5117 65.0114 20.9917C65.0114 20.4508 64.8554 20.0556 64.5433 19.806C64.2521 19.5356 63.7945 19.4004 63.1704 19.4004H60.487V22.5206ZM63.6385 30.446C64.2625 30.446 64.7202 30.3316 65.0114 30.1028C65.3234 29.8531 65.4794 29.4579 65.4794 28.9171C65.4794 27.8562 64.8658 27.3257 63.6385 27.3257H60.487V30.446H63.6385ZM84.4378 36L80.2879 28.0746H80.2567V36H73.3297V13.9087H83.6265C85.4154 13.9087 86.9444 14.2312 88.2132 14.876C89.4821 15.5001 90.4286 16.3633 91.0527 17.4658C91.6975 18.5475 92.0199 19.7748 92.0199 21.1477C92.0199 22.6246 91.6039 23.9351 90.7718 25.0792C89.9606 26.2233 88.7853 27.0449 87.246 27.5442L92.0511 36H84.4378ZM80.2567 23.4567H83.0025C83.6681 23.4567 84.1673 23.311 84.5002 23.0198C84.833 22.7078 84.9994 22.2294 84.9994 21.5845C84.9994 21.0021 84.8226 20.5444 84.469 20.2116C84.1361 19.8788 83.6473 19.7124 83.0025 19.7124H80.2567V23.4567ZM106.839 32.6613H99.4749L98.3828 36H91.1126L99.194 13.9087H107.182L115.232 36H107.931L106.839 32.6613ZM105.154 27.4506L103.157 21.3037L101.16 27.4506H105.154ZM136.432 36H129.505L122.173 24.892V36H115.246V13.9087H122.173L129.505 25.204V13.9087H136.432V36ZM147.206 13.9087C149.515 13.9087 151.533 14.3768 153.259 15.3128C155.007 16.2489 156.348 17.549 157.285 19.2131C158.221 20.8773 158.689 22.7702 158.689 24.892C158.689 26.9929 158.221 28.8859 157.285 30.5708C156.348 32.2557 155.007 33.587 153.259 34.5647C151.533 35.5216 149.515 36 147.206 36H138.001V13.9087H147.206ZM146.582 29.8219C148.142 29.8219 149.38 29.3955 150.295 28.5426C151.21 27.6898 151.668 26.4729 151.668 24.892C151.668 23.311 151.21 22.0942 150.295 21.2413C149.38 20.3884 148.142 19.962 146.582 19.962H144.928V29.8219H146.582ZM170.299 13.9087V36H163.372V13.9087H170.299ZM181.072 13.9087C183.381 13.9087 185.398 14.3768 187.125 15.3128C188.872 16.2489 190.214 17.549 191.15 19.2131C192.086 20.8773 192.554 22.7702 192.554 24.892C192.554 26.9929 192.086 28.8859 191.15 30.5708C190.214 32.2557 188.872 33.587 187.125 34.5647C185.398 35.5216 183.381 36 181.072 36H171.867V13.9087H181.072ZM180.448 29.8219C182.008 29.8219 183.245 29.3955 184.161 28.5426C185.076 27.6898 185.534 26.4729 185.534 24.892C185.534 23.311 185.076 22.0942 184.161 21.2413C183.245 20.3884 182.008 19.962 180.448 19.962H178.794V29.8219H180.448ZM200.422 19.4316V22.1462H207.287V27.3569H200.422V30.4772H208.223V36H193.495V13.9087H208.223V19.4316H200.422ZM230.46 36H223.533L216.2 24.892V36H209.273V13.9087H216.2L223.533 25.204V13.9087H230.46V36ZM249.378 13.9087V19.4004H243.511V36H236.585V19.4004H230.781V13.9087H249.378ZM256.623 13.9087V36H249.696V13.9087H256.623ZM275.54 13.9087V19.4004H269.674V36H262.747V19.4004H256.943V13.9087H275.54ZM297.076 13.9087L289.151 29.2915V36H282.224V29.2915L274.298 13.9087H282.224L285.75 21.7405L289.276 13.9087H297.076ZM53.867 63.9077C53.867 59.5515 54.7382 55.6724 56.4807 52.2703C58.2647 48.8683 60.7954 46.2339 64.073 44.3669C67.3505 42.4585 71.2089 41.5042 75.6481 41.5042C79.465 41.5042 82.867 42.2303 85.8541 43.6824C88.8827 45.0929 91.3305 47.1051 93.1975 49.7188C95.1059 52.3326 96.3713 55.3819 96.9936 58.8669H82.4314C81.7676 57.4148 80.8133 56.2947 79.5687 55.5064C78.3656 54.6766 76.9757 54.2618 75.3992 54.2618C73.0758 54.2618 71.2296 55.133 69.8605 56.8755C68.5329 58.618 67.8691 60.9621 67.8691 63.9077C67.8691 66.8533 68.5329 69.1974 69.8605 70.9399C71.2296 72.6824 73.0758 73.5536 75.3992 73.5536C76.9757 73.5536 78.3656 73.1595 79.5687 72.3712C80.8133 71.5415 81.7676 70.4006 82.4314 68.9485H96.9936C96.3713 72.4335 95.1059 75.4828 93.1975 78.0966C91.3305 80.7103 88.8827 82.7432 85.8541 84.1953C82.867 85.6059 79.465 86.3112 75.6481 86.3112C71.2089 86.3112 67.3505 85.3777 64.073 83.5107C60.7954 81.6023 58.2647 78.9471 56.4807 75.5451C54.7382 72.143 53.867 68.2639 53.867 63.9077ZM121.011 86L112.734 70.1931H112.672V86H98.8562V41.9399H119.393C122.961 41.9399 126.01 42.5829 128.541 43.8691C131.072 45.1137 132.959 46.8354 134.204 49.0343C135.49 51.1917 136.133 53.6394 136.133 56.3776C136.133 59.3233 135.303 61.937 133.644 64.2189C132.026 66.5007 129.682 68.1395 126.612 69.1352L136.195 86H121.011ZM112.672 60.9828H118.148C119.476 60.9828 120.471 60.6924 121.135 60.1116C121.799 59.4892 122.131 58.535 122.131 57.2489C122.131 56.0872 121.778 55.1745 121.073 54.5107C120.409 53.8469 119.434 53.515 118.148 53.515H112.672V60.9828ZM151.251 52.9549V58.3691H164.942V68.7618H151.251V74.985H166.808V86H137.435V41.9399H166.808V52.9549H151.251ZM197.157 79.3412H182.47L180.292 86H165.792L181.91 41.9399H197.841L213.897 86H199.335L197.157 79.3412ZM193.796 68.9485L189.813 56.6888L185.831 68.9485H193.796ZM248.525 41.9399V52.8927H236.826V86H223.01V52.8927H211.435V41.9399H248.525ZM262.976 41.9399V86H249.161V41.9399H262.976ZM287.574 86.4356C283.425 86.4356 279.609 85.4607 276.124 83.5107C272.68 81.5608 269.942 78.8641 267.909 75.4206C265.876 71.9771 264.86 68.098 264.86 63.7832C264.86 59.4685 265.876 55.5894 267.909 52.1459C269.942 48.7024 272.68 46.0264 276.124 44.118C279.609 42.168 283.425 41.1931 287.574 41.1931C291.723 41.1931 295.519 42.168 298.963 44.118C302.406 46.0264 305.124 48.7024 307.115 52.1459C309.148 55.5894 310.164 59.4685 310.164 63.7832C310.164 68.098 309.148 71.9771 307.115 75.4206C305.124 78.8641 302.385 81.5608 298.9 83.5107C295.457 85.4607 291.682 86.4356 287.574 86.4356ZM287.574 73.5536C290.312 73.5536 292.428 72.6824 293.922 70.9399C295.415 69.1559 296.162 66.7704 296.162 63.7832C296.162 60.7546 295.415 58.3691 293.922 56.6266C292.428 54.8426 290.312 53.9506 287.574 53.9506C284.795 53.9506 282.658 54.8426 281.164 56.6266C279.671 58.3691 278.924 60.7546 278.924 63.7832C278.924 66.7704 279.671 69.1559 281.164 70.9399C282.658 72.6824 284.795 73.5536 287.574 73.5536ZM354.292 86H340.477L325.852 63.8455V86H312.037V41.9399H325.852L340.477 64.4678V41.9399H354.292V86Z" fill="#3FB4C3"/>
</svg>
