<svg width="212" height="54" viewBox="0 0 212 54" fill="none" xmlns="http://www.w3.org/2000/svg">
<g opacity="0.5">
<path d="M0.704693 16.7647V2.10708H24.5938V53.6201H8.17444V16.7647H0.704693Z" fill="white"/>
<path d="M40.4754 14.2927C41.2637 14.4775 41.8735 14.8594 42.3046 15.4383C42.7481 16.005 42.9698 16.664 42.9698 17.4154C42.9698 18.561 42.5879 19.4479 41.8242 20.0761C41.0728 20.692 39.9888 21 38.5722 21H31.7171V7.91802H38.3874C39.7178 7.91802 40.7648 8.2075 41.5286 8.78646C42.2923 9.36542 42.6742 10.2092 42.6742 11.3179C42.6742 12.0816 42.4709 12.7283 42.0644 13.258C41.6702 13.7753 41.1405 14.1203 40.4754 14.2927ZM35.8191 13.0178H37.4081C37.7777 13.0178 38.0487 12.9439 38.2211 12.796C38.4059 12.6482 38.4983 12.4203 38.4983 12.1124C38.4983 11.7921 38.4059 11.5581 38.2211 11.4102C38.0487 11.2501 37.7777 11.17 37.4081 11.17H35.8191V13.0178ZM37.6853 17.711C38.0548 17.711 38.3258 17.6433 38.4983 17.5078C38.683 17.36 38.7754 17.1259 38.7754 16.8056C38.7754 16.1774 38.412 15.8633 37.6853 15.8633H35.8191V17.711H37.6853ZM50.0022 21L47.5447 16.3067H47.5262V21H43.4242V7.91802H49.5218C50.5811 7.91802 51.4865 8.10896 52.2379 8.49082C52.9893 8.86037 53.5498 9.37158 53.9194 10.0244C54.3012 10.665 54.4922 11.3918 54.4922 12.2048C54.4922 13.0794 54.2458 13.8554 53.7531 14.5329C53.2727 15.2104 52.5767 15.697 51.6651 15.9926L54.5106 21H50.0022ZM47.5262 13.5721H49.1522C49.5464 13.5721 49.842 13.4859 50.0391 13.3134C50.2362 13.1286 50.3348 12.8453 50.3348 12.4635C50.3348 12.1185 50.2301 11.8475 50.0206 11.6505C49.8236 11.4534 49.5341 11.3548 49.1522 11.3548H47.5262V13.5721ZM63.2675 19.0229H58.9068L58.2601 21H53.9549L58.7405 7.91802H63.4707L68.2379 21H63.9142L63.2675 19.0229ZM62.2697 15.9372L61.0871 12.2972L59.9046 15.9372H62.2697ZM80.7921 21H76.6901L72.3479 14.4221V21H68.246V7.91802H72.3479L76.6901 14.6068V7.91802H80.7921V21ZM87.1723 7.91802C88.5396 7.91802 89.7345 8.19518 90.7569 8.7495C91.7916 9.30383 92.5861 10.0737 93.1405 11.0592C93.6948 12.0446 93.972 13.1656 93.972 14.4221C93.972 15.6662 93.6948 16.7872 93.1405 17.7849C92.5861 18.7827 91.7916 19.5711 90.7569 20.15C89.7345 20.7167 88.5396 21 87.1723 21H81.7215V7.91802H87.1723ZM86.8027 17.3415C87.7266 17.3415 88.4595 17.089 89.0015 16.5839C89.5435 16.0789 89.8145 15.3582 89.8145 14.4221C89.8145 13.4859 89.5435 12.7653 89.0015 12.2602C88.4595 11.7552 87.7266 11.5026 86.8027 11.5026H85.8234V17.3415H86.8027ZM100.847 7.91802V21H96.7451V7.91802H100.847ZM107.227 7.91802C108.594 7.91802 109.789 8.19518 110.811 8.7495C111.846 9.30383 112.641 10.0737 113.195 11.0592C113.749 12.0446 114.026 13.1656 114.026 14.4221C114.026 15.6662 113.749 16.7872 113.195 17.7849C112.641 18.7827 111.846 19.5711 110.811 20.15C109.789 20.7167 108.594 21 107.227 21H101.776V7.91802H107.227ZM106.857 17.3415C107.781 17.3415 108.514 17.089 109.056 16.5839C109.598 16.0789 109.869 15.3582 109.869 14.4221C109.869 13.4859 109.598 12.7653 109.056 12.2602C108.514 11.7552 107.781 11.5026 106.857 11.5026H105.878V17.3415H106.857ZM118.686 11.1885V12.796H122.751V15.8818H118.686V17.7295H123.305V21H114.584V7.91802H123.305V11.1885H118.686ZM136.473 21H132.371L128.029 14.4221V21H123.927V7.91802H128.029L132.371 14.6068V7.91802H136.473V21ZM147.676 7.91802V11.17H144.202V21H140.1V11.17H136.663V7.91802H147.676ZM151.967 7.91802V21H147.865V7.91802H151.967ZM163.169 7.91802V11.17H159.695V21H155.593V11.17H152.156V7.91802H163.169ZM175.922 7.91802L171.229 17.0274V21H167.127V17.0274L162.434 7.91802H167.127L169.215 12.5558L171.303 7.91802H175.922ZM31.8988 37.9174C31.8988 35.3377 32.4147 33.0406 33.4466 31.026C34.503 29.0114 36.0017 27.4513 37.9426 26.3458C39.8835 25.2156 42.1683 24.6506 44.7971 24.6506C47.0574 24.6506 49.072 25.0805 50.8409 25.9404C52.6344 26.7757 54.0839 27.9673 55.1895 29.5151C56.3196 31.0629 57.069 32.8686 57.4375 34.9324H48.814C48.4209 34.0725 47.8559 33.4091 47.1188 32.9423C46.4063 32.451 45.5833 32.2053 44.6497 32.2053C43.2739 32.2053 42.1806 32.7212 41.3698 33.7531C40.5837 34.785 40.1906 36.1731 40.1906 37.9174C40.1906 39.6618 40.5837 41.0499 41.3698 42.0817C42.1806 43.1136 43.2739 43.6295 44.6497 43.6295C45.5833 43.6295 46.4063 43.3961 47.1188 42.9293C47.8559 42.438 48.4209 41.7623 48.814 40.9025H57.4375C57.069 42.9662 56.3196 44.7719 55.1895 46.3197C54.0839 47.8675 52.6344 49.0714 50.8409 49.9313C49.072 50.7666 47.0574 51.1843 44.7971 51.1843C42.1683 51.1843 39.8835 50.6315 37.9426 49.5259C36.0017 48.3958 34.503 46.8234 33.4466 44.8088C32.4147 42.7942 31.8988 40.4971 31.8988 37.9174ZM71.6599 51L66.7585 41.6395H66.7217V51H58.5405V24.9085H70.7017C72.8146 24.9085 74.6204 25.2893 76.119 26.0509C77.6177 26.788 78.7356 27.8076 79.4726 29.1097C80.2342 30.3872 80.615 31.8368 80.615 33.4583C80.615 35.2026 80.1237 36.7504 79.1409 38.1017C78.1828 39.4529 76.7947 40.4234 74.9766 41.013L80.6519 51H71.6599ZM66.7217 36.1853H69.9647C70.7509 36.1853 71.3405 36.0134 71.7336 35.6694C72.1267 35.3009 72.3232 34.7358 72.3232 33.9742C72.3232 33.2863 72.1144 32.7458 71.6967 32.3527C71.3037 31.9596 70.7263 31.7631 69.9647 31.7631H66.7217V36.1853ZM89.5673 31.4314V34.6375H97.6748V40.7919H89.5673V44.4771H98.7804V51H81.386V24.9085H98.7804V31.4314H89.5673ZM116.752 47.0568H108.055L106.765 51H98.1783L107.723 24.9085H117.157L126.665 51H118.042L116.752 47.0568ZM114.762 40.9025L112.403 33.6425L110.045 40.9025H114.762ZM147.171 24.9085V31.3945H140.243V51H132.062V31.3945H125.207V24.9085H147.171ZM155.729 24.9085V51H147.548V24.9085H155.729ZM170.295 51.258C167.838 51.258 165.578 50.6806 163.514 49.5259C161.475 48.3712 159.854 46.7743 158.65 44.7351C157.446 42.6959 156.844 40.3988 156.844 37.8437C156.844 35.2886 157.446 32.9915 158.65 30.9523C159.854 28.9131 161.475 27.3285 163.514 26.1984C165.578 25.0436 167.838 24.4663 170.295 24.4663C172.752 24.4663 175 25.0436 177.039 26.1984C179.078 27.3285 180.688 28.9131 181.867 30.9523C183.071 32.9915 183.673 35.2886 183.673 37.8437C183.673 40.3988 183.071 42.6959 181.867 44.7351C180.688 46.7743 179.066 48.3712 177.002 49.5259C174.963 50.6806 172.728 51.258 170.295 51.258ZM170.295 43.6295C171.917 43.6295 173.17 43.1136 174.054 42.0817C174.939 41.0253 175.381 39.6126 175.381 37.8437C175.381 36.0502 174.939 34.6375 174.054 33.6057C173.17 32.5492 171.917 32.021 170.295 32.021C168.649 32.021 167.384 32.5492 166.499 33.6057C165.615 34.6375 165.173 36.0502 165.173 37.8437C165.173 39.6126 165.615 41.0253 166.499 42.0817C167.384 43.1136 168.649 43.6295 170.295 43.6295ZM209.804 51H201.623L192.963 37.8806V51H184.781V24.9085H192.963L201.623 38.2491V24.9085H209.804V51Z" fill="white"/>
</g>
</svg>
