<svg width="334" height="88" viewBox="0 0 334 88" fill="none" xmlns="http://www.w3.org/2000/svg">
<path d="M3.26895 67.9002C13.6984 60.117 21.9486 53.0732 28.0195 46.7688C34.0904 40.3865 37.1259 34.4324 37.1259 28.9063C37.1259 27.0383 36.6978 25.5985 35.8417 24.5866C35.0633 23.5748 34.0126 23.0689 32.6895 23.0689C31.1328 23.0689 29.8875 23.8861 28.9535 25.5206C28.0974 27.0773 27.786 29.4901 28.0195 32.759H2.9187C3.1522 25.5206 4.70884 19.5665 7.58862 14.8965C10.5462 10.2266 14.36 6.80202 19.0299 4.62272C23.6999 2.44342 28.8368 1.35377 34.4407 1.35377C44.4032 1.35377 51.6805 3.76657 56.2726 8.59215C60.9425 13.3399 63.2775 19.4497 63.2775 26.9216C63.2775 34.7826 60.7479 42.1767 55.6888 49.1037C50.7076 55.953 44.4421 61.7514 36.8924 66.4992H63.6277V87.3971H3.26895V67.9002Z" fill="#3FB4C3"/>
<path d="M89.8614 6.57518C93.564 6.57518 96.7996 7.32571 99.5682 8.82675C102.37 10.3278 104.522 12.4126 106.023 15.0811C107.524 17.7496 108.274 20.7851 108.274 24.1875C108.274 27.5565 107.524 30.5919 106.023 33.2938C104.522 35.9957 102.37 38.1305 99.5682 39.6983C96.7996 41.2327 93.564 41.9999 89.8614 41.9999H75.1011V6.57518H89.8614ZM88.8607 32.093C91.3624 32.093 93.3472 31.4092 94.8149 30.0415C96.2825 28.6739 97.0164 26.7226 97.0164 24.1875C97.0164 21.6524 96.2825 19.701 94.8149 18.3334C93.3472 16.9658 91.3624 16.282 88.8607 16.282H86.2089V32.093H88.8607ZM120.891 6.57518V41.9999H109.783V6.57518H120.891ZM145.121 18.6836C144.688 17.9831 144.071 17.4494 143.27 17.0825C142.47 16.6822 141.502 16.4821 140.368 16.4821C138.233 16.4821 136.582 17.1826 135.415 18.5836C134.247 19.9512 133.663 21.8358 133.663 24.2375C133.663 27.0061 134.314 29.0742 135.615 30.4418C136.916 31.8094 138.917 32.4933 141.619 32.4933C144.187 32.4933 146.256 31.4592 147.823 29.3911H138.967V21.5356H157.03V32.6434C155.495 35.2785 153.377 37.5468 150.675 39.4481C147.973 41.3161 144.554 42.2501 140.418 42.2501C136.749 42.2501 133.547 41.4995 130.811 39.9985C128.11 38.4641 126.025 36.3293 124.557 33.594C123.123 30.8588 122.406 27.7399 122.406 24.2375C122.406 20.7351 123.123 17.6162 124.557 14.881C126.025 12.1457 128.11 10.0276 130.811 8.52654C133.513 6.99214 136.682 6.22494 140.318 6.22494C144.955 6.22494 148.724 7.34238 151.626 9.57728C154.561 11.8122 156.296 14.8476 156.83 18.6836H145.121ZM169.636 6.57518V41.9999H158.528V6.57518H169.636ZM199.971 6.57518V15.3813H190.564V41.9999H179.456V15.3813H170.15V6.57518H199.971ZM223.197 36.6461H211.389L209.638 41.9999H197.98L210.939 6.57518H223.748L236.657 41.9999H224.949L223.197 36.6461ZM220.495 28.2903L217.293 18.4334L214.091 28.2903H220.495ZM247.786 33.594H258.494V41.9999H236.679V6.57518H247.786V33.594ZM113.261 50.0482V81.9999H103.287V66.0692L98.3683 81.9999H89.7937L84.8746 66.0692V81.9999H74.8558V50.0482H87.1311L94.1713 69.2282L101.031 50.0482H113.261ZM136.014 77.171H125.364L123.784 81.9999H113.269L124.957 50.0482H136.511L148.154 81.9999H137.594L136.014 77.171ZM133.577 69.6344L130.689 60.7439L127.801 69.6344H133.577ZM164.24 81.9999L158.238 70.537H158.192V81.9999H148.174V50.0482H163.066C165.654 50.0482 167.865 50.5145 169.7 51.4472C171.536 52.3498 172.905 53.5984 173.807 55.1929C174.74 56.7574 175.206 58.5325 175.206 60.5182C175.206 62.6544 174.605 64.5498 173.401 66.2046C172.228 67.8593 170.528 69.0477 168.301 69.7698L175.251 81.9999H164.24ZM158.192 63.8578H162.164C163.127 63.8578 163.849 63.6472 164.33 63.226C164.811 62.7747 165.052 62.0827 165.052 61.15C165.052 60.3076 164.796 59.6457 164.285 59.1643C163.804 58.683 163.096 58.4423 162.164 58.4423H158.192V63.8578ZM195.466 81.9999L186.169 68.1451V81.9999H176.15V50.0482H186.169V63.4968L195.33 50.0482H206.658L195.646 65.3471L207.38 81.9999H195.466ZM217.98 58.0361V61.9624H227.909V69.499H217.98V74.012H229.263V81.9999H207.961V50.0482H229.263V58.0361H217.98ZM255.874 50.0482V57.991H247.389V81.9999H237.371V57.991H228.977V50.0482H255.874ZM266.353 50.0482V81.9999H256.335V50.0482H266.353ZM299.265 81.9999H289.246L278.641 65.9338V81.9999H268.622V50.0482H278.641L289.246 66.3851V50.0482H299.265V81.9999ZM321.121 60.9695C320.73 60.3377 320.173 59.8563 319.451 59.5254C318.729 59.1643 317.856 58.9838 316.834 58.9838C314.908 58.9838 313.419 59.6156 312.366 60.8793C311.313 62.1128 310.786 63.8127 310.786 65.9789C310.786 68.4761 311.373 70.3414 312.546 71.575C313.72 72.8085 315.525 73.4253 317.962 73.4253C320.278 73.4253 322.144 72.4926 323.558 70.6272H315.57V63.5419H331.862V73.5607C330.478 75.9375 328.567 77.9834 326.13 79.6983C323.693 81.3831 320.609 82.2255 316.879 82.2255C313.569 82.2255 310.681 81.5486 308.214 80.1947C305.777 78.8107 303.896 76.8852 302.573 74.4181C301.279 71.951 300.632 69.138 300.632 65.9789C300.632 62.8198 301.279 60.0068 302.573 57.5397C303.896 55.0726 305.777 53.1621 308.214 51.8082C310.651 50.4243 313.509 49.7323 316.788 49.7323C320.97 49.7323 324.37 50.7402 326.988 52.756C329.635 54.7717 331.2 57.5096 331.681 60.9695H321.121Z" fill="#3FB4C3"/>
</svg>
