<svg width="320" height="86" viewBox="0 0 320 86" fill="none" xmlns="http://www.w3.org/2000/svg">
<g opacity="0.28">
<path d="M4.98055 27.8309C5.20191 19.0504 7.74752 12.3359 12.6174 7.68735C17.5611 3.03884 24.5338 0.71458 33.5357 0.71458C39.3648 0.71458 44.3453 1.71069 48.4774 3.70291C52.6094 5.69513 55.7084 8.38832 57.7744 11.7825C59.9142 15.1766 60.9841 19.0135 60.9841 23.2931C60.9841 28.4581 59.7666 32.5163 57.3317 35.4678C54.8967 38.3454 52.1667 40.3007 49.1414 41.3337V41.7765C57.9957 45.0968 62.4229 51.2579 62.4229 60.2598C62.4229 64.9821 61.3161 69.151 59.1025 72.7665C56.889 76.3821 53.7162 79.1859 49.5841 81.1781C45.5259 83.1704 40.6929 84.1665 35.0852 84.1665C25.493 84.1665 17.9669 81.8791 12.5067 77.3044C7.04656 72.7297 4.24269 65.5724 4.09512 55.8327H28.0018C27.8542 58.489 28.2231 60.5181 29.1086 61.92C30.0678 63.2482 31.6911 63.9122 33.9784 63.9122C35.3066 63.9122 36.4134 63.4326 37.2988 62.4734C38.1842 61.4404 38.6269 60.1123 38.6269 58.489C38.6269 56.423 37.926 54.8735 36.524 53.8405C35.1959 52.7337 32.9085 52.1803 29.6619 52.1803H25.5668V32.3687H29.5513C34.5687 32.6639 37.0774 30.6717 37.0774 26.3921C37.0774 24.5474 36.6716 23.1824 35.86 22.297C35.1221 21.4115 34.1629 20.9688 32.9823 20.9688C30.2522 20.9688 28.8872 23.2562 28.8872 27.8309H4.98055Z" fill="#9D9E9E"/>
<path d="M90.4711 18.9981C90.4711 20.5352 90.1155 21.9346 89.4043 23.1964C88.6931 24.4353 87.6378 25.4218 86.2383 26.1559C84.8618 26.8901 83.187 27.2571 81.214 27.2571H78.1857V35H70.5461V10.6358H81.214C84.1965 10.6358 86.4792 11.3928 88.0622 12.907C89.6681 14.4212 90.4711 16.4515 90.4711 18.9981ZM80.3537 21.2349C81.9367 21.2349 82.7282 20.4893 82.7282 18.9981C82.7282 17.5068 81.9367 16.7612 80.3537 16.7612H78.1857V21.2349H80.3537ZM113.714 10.6358V35H106.074V25.5021H98.8132V35H91.1736V10.6358H98.8132V19.411H106.074V10.6358H113.714ZM127.303 35.2409C125.009 35.2409 122.898 34.7018 120.971 33.6235C119.067 32.5452 117.553 31.054 116.429 29.1498C115.304 27.2457 114.742 25.1006 114.742 22.7146C114.742 20.3287 115.304 18.1836 116.429 16.2795C117.553 14.3753 119.067 12.8955 120.971 11.8402C122.898 10.7619 125.009 10.2228 127.303 10.2228C129.597 10.2228 131.696 10.7619 133.6 11.8402C135.505 12.8955 137.007 14.3753 138.109 16.2795C139.233 18.1836 139.795 20.3287 139.795 22.7146C139.795 25.1006 139.233 27.2457 138.109 29.1498C137.007 31.054 135.493 32.5452 133.566 33.6235C131.662 34.7018 129.574 35.2409 127.303 35.2409ZM127.303 28.1174C128.817 28.1174 129.987 27.6357 130.813 26.6721C131.639 25.6856 132.052 24.3665 132.052 22.7146C132.052 21.0399 131.639 19.7207 130.813 18.7572C129.987 17.7707 128.817 17.2774 127.303 17.2774C125.766 17.2774 124.584 17.7707 123.758 18.7572C122.933 19.7207 122.52 21.0399 122.52 22.7146C122.52 24.3665 122.933 25.6856 123.758 26.6721C124.584 27.6357 125.766 28.1174 127.303 28.1174ZM159.964 10.6358V16.6924H153.494V35H145.854V16.6924H139.454V10.6358H159.964ZM172.187 35.2409C169.893 35.2409 167.783 34.7018 165.855 33.6235C163.951 32.5452 162.437 31.054 161.313 29.1498C160.189 27.2457 159.627 25.1006 159.627 22.7146C159.627 20.3287 160.189 18.1836 161.313 16.2795C162.437 14.3753 163.951 12.8955 165.855 11.8402C167.783 10.7619 169.893 10.2228 172.187 10.2228C174.482 10.2228 176.581 10.7619 178.485 11.8402C180.389 12.8955 181.892 14.3753 182.993 16.2795C184.117 18.1836 184.679 20.3287 184.679 22.7146C184.679 25.1006 184.117 27.2457 182.993 29.1498C181.892 31.054 180.378 32.5452 178.451 33.6235C176.546 34.7018 174.459 35.2409 172.187 35.2409ZM172.187 28.1174C173.702 28.1174 174.872 27.6357 175.698 26.6721C176.523 25.6856 176.936 24.3665 176.936 22.7146C176.936 21.0399 176.523 19.7207 175.698 18.7572C174.872 17.7707 173.702 17.2774 172.187 17.2774C170.65 17.2774 169.469 17.7707 168.643 18.7572C167.817 19.7207 167.404 21.0399 167.404 22.7146C167.404 24.3665 167.817 25.6856 168.643 26.6721C169.469 27.6357 170.65 28.1174 172.187 28.1174ZM195.247 35.2409C192.333 35.2409 189.924 34.5641 188.02 33.2105C186.139 31.834 185.118 29.8266 184.958 27.1883H193.079C193.194 28.5878 193.813 29.2875 194.937 29.2875C195.35 29.2875 195.694 29.1957 195.97 29.0122C196.268 28.8057 196.417 28.496 196.417 28.083C196.417 27.5095 196.107 27.0506 195.488 26.7065C194.868 26.3395 193.905 25.9265 192.597 25.4677C191.037 24.9171 189.741 24.3779 188.709 23.8503C187.699 23.3226 186.827 22.554 186.093 21.5446C185.359 20.5352 185.003 19.239 185.026 17.656C185.026 16.073 185.428 14.7309 186.231 13.6297C187.057 12.5055 188.169 11.6567 189.569 11.0831C190.991 10.5096 192.586 10.2228 194.352 10.2228C197.335 10.2228 199.698 10.9111 201.441 12.2876C203.208 13.6641 204.137 15.6027 204.229 18.1033H196.004C195.981 17.4151 195.809 16.9218 195.488 16.6236C195.167 16.3253 194.777 16.1762 194.318 16.1762C193.997 16.1762 193.733 16.2909 193.526 16.5203C193.32 16.7268 193.217 17.0251 193.217 17.4151C193.217 17.9657 193.515 18.4245 194.111 18.7916C194.731 19.1357 195.706 19.5601 197.036 20.0649C198.574 20.6384 199.835 21.189 200.822 21.7167C201.831 22.2443 202.703 22.9785 203.437 23.9191C204.171 24.8597 204.538 26.0412 204.538 27.4636C204.538 28.9548 204.171 30.2969 203.437 31.4899C202.703 32.6599 201.636 33.5776 200.237 34.2429C198.837 34.9082 197.174 35.2409 195.247 35.2409ZM102.801 82L99.965 79.3375C96.3379 81.4984 92.074 82.5788 87.1735 82.5788C83.855 82.5788 80.961 82.0579 78.4914 81.016C76.0605 79.9742 74.189 78.5079 72.8771 76.6171C71.5651 74.6878 70.9091 72.4883 70.9091 70.0188C70.9091 67.665 71.5072 65.5234 72.7034 63.5941C73.9382 61.6261 75.7711 59.9669 78.202 58.6164C76.427 56.4169 75.5395 54.1017 75.5395 51.6707C75.5395 49.5871 76.0798 47.677 77.1602 45.9406C78.2792 44.2042 79.8999 42.8344 82.0221 41.8311C84.1444 40.7893 86.6719 40.2683 89.6045 40.2683C92.5756 40.2683 95.1031 40.8085 97.1868 41.889C99.2705 42.9308 100.833 44.3199 101.875 46.0564C102.917 47.7928 103.438 49.6642 103.438 51.6707H91.746C91.746 50.9376 91.5338 50.3974 91.1093 50.0501C90.6849 49.6642 90.1833 49.4713 89.6045 49.4713C88.9871 49.4713 88.4468 49.6642 87.9838 50.0501C87.5594 50.3974 87.3471 50.899 87.3471 51.555C87.3471 52.7898 88.196 54.2175 89.8939 55.8381L99.2126 64.8674C99.7528 63.8256 100.235 62.6487 100.66 61.3367L100.833 60.8158H113.277L112.699 62.3207C111.232 66.1794 109.419 69.6136 107.258 72.6234L116.924 82H102.801ZM88.0996 72.4498C89.4887 72.4498 90.7814 72.2375 91.9775 71.8131L85.1477 65.4462C84.4917 65.9093 83.9901 66.4495 83.6428 67.0669C83.3341 67.6457 83.1797 68.2438 83.1797 68.8612C83.1797 69.8644 83.6042 70.7133 84.4531 71.4079C85.3406 72.1025 86.5561 72.4498 88.0996 72.4498ZM158.196 41.0208L144.42 82H127.809L114.033 41.0208H127.693L136.143 69.2085L144.536 41.0208H158.196ZM171.028 41.0208V82H158.178V41.0208H171.028ZM191.012 41.0208C195.295 41.0208 199.038 41.889 202.24 43.6254C205.482 45.3618 207.97 47.7735 209.707 50.8604C211.443 53.9474 212.312 57.4588 212.312 61.3946C212.312 65.2919 211.443 68.8033 209.707 71.9288C207.97 75.0544 205.482 77.5239 202.24 79.3375C199.038 81.1125 195.295 82 191.012 82H173.937V41.0208H191.012ZM189.854 70.5397C192.748 70.5397 195.044 69.7487 196.742 68.1666C198.44 66.5846 199.288 64.3272 199.288 61.3946C199.288 58.462 198.44 56.2047 196.742 54.6226C195.044 53.0406 192.748 52.2495 189.854 52.2495H186.786V70.5397H189.854ZM226.907 51.2656V56.3012H239.64V65.9672H226.907V71.7552H241.377V82H214.057V41.0208H241.377V51.2656H226.907ZM263.294 82.4052C259.435 82.4052 255.885 81.4984 252.644 79.6848C249.441 77.8712 246.895 75.3631 245.004 72.1604C243.113 68.9576 242.168 65.3498 242.168 61.3367C242.168 57.3237 243.113 53.7158 245.004 50.5131C246.895 47.3104 249.441 44.8216 252.644 43.0466C255.885 41.233 259.435 40.3262 263.294 40.3262C267.153 40.3262 270.683 41.233 273.886 43.0466C277.089 44.8216 279.616 47.3104 281.468 50.5131C283.359 53.7158 284.305 57.3237 284.305 61.3367C284.305 65.3498 283.359 68.9576 281.468 72.1604C279.616 75.3631 277.07 77.8712 273.828 79.6848C270.626 81.4984 267.114 82.4052 263.294 82.4052ZM263.294 70.4239C265.841 70.4239 267.809 69.6136 269.198 67.993C270.587 66.3337 271.282 64.115 271.282 61.3367C271.282 58.5199 270.587 56.3012 269.198 54.6805C267.809 53.0213 265.841 52.1917 263.294 52.1917C260.709 52.1917 258.722 53.0213 257.332 54.6805C255.943 56.3012 255.249 58.5199 255.249 61.3367C255.249 64.115 255.943 66.3337 257.332 67.993C258.722 69.6136 260.709 70.4239 263.294 70.4239ZM302.079 82.4052C297.178 82.4052 293.127 81.2669 289.924 78.9902C286.76 76.675 285.043 73.2987 284.773 68.8612H298.432C298.625 71.215 299.667 72.3919 301.558 72.3919C302.252 72.3919 302.831 72.2375 303.294 71.9288C303.796 71.5816 304.047 71.0606 304.047 70.3661C304.047 69.4014 303.526 68.6297 302.484 68.0509C301.442 67.4335 299.821 66.7389 297.622 65.9672C294.998 65.0411 292.818 64.1343 291.082 63.2468C289.384 62.3593 287.917 61.0666 286.683 59.3688C285.448 57.671 284.85 55.4908 284.888 52.8283C284.888 50.1659 285.564 47.9085 286.914 46.0564C288.303 44.1656 290.175 42.7379 292.529 41.7732C294.921 40.8085 297.603 40.3262 300.574 40.3262C305.59 40.3262 309.565 41.4838 312.497 43.799C315.468 46.1142 317.031 49.3748 317.186 53.5808H303.352C303.314 52.4232 303.024 51.5936 302.484 51.0919C301.944 50.5903 301.288 50.3395 300.516 50.3395C299.976 50.3395 299.532 50.5324 299.185 50.9183C298.838 51.2656 298.664 51.7672 298.664 52.4232C298.664 53.3493 299.166 54.121 300.169 54.7384C301.211 55.3172 302.851 56.0311 305.089 56.88C307.674 57.8446 309.796 58.7707 311.455 59.6582C313.153 60.5457 314.62 61.7805 315.854 63.3626C317.089 64.9446 317.706 66.9318 317.706 69.3242C317.706 71.8324 317.089 74.0897 315.854 76.0962C314.62 78.0641 312.825 79.6076 310.471 80.7266C308.118 81.8457 305.32 82.4052 302.079 82.4052Z" fill="#9D9E9E"/>
</g>
</svg>
