<svg width="204" height="54" viewBox="0 0 204 54" fill="none" xmlns="http://www.w3.org/2000/svg">
<g opacity="0.5">
<path d="M1.98635 41.1546C8.32373 36.4252 13.3369 32.1451 17.0258 28.3143C20.7147 24.4362 22.5592 20.8182 22.5592 17.4604C22.5592 16.3253 22.2991 15.4504 21.7789 14.8356C21.3059 14.2207 20.6675 13.9133 19.8635 13.9133C18.9176 13.9133 18.1609 14.4099 17.5933 15.4031C17.0731 16.349 16.8839 17.8151 17.0258 19.8014H1.77352C1.9154 15.4031 2.86128 11.7851 4.61116 8.94747C6.40833 6.10983 8.72573 4.0289 11.5634 2.70467C14.401 1.38044 17.5224 0.718325 20.9276 0.718325C26.9812 0.718325 31.4032 2.18444 34.1935 5.11666C37.0312 8.00159 38.45 11.7142 38.45 16.2544C38.45 21.0311 36.9129 25.524 33.8388 29.7332C30.812 33.895 27.0048 37.4184 22.4173 40.3034H38.6628V53.0018H1.98635V41.1546Z" fill="#9D9E9E"/>
<path d="M54.6034 4.47438C56.8532 4.47438 58.8193 4.93043 60.5016 5.84253C62.2042 6.75462 63.5115 8.02143 64.4236 9.64293C65.3357 11.2644 65.7918 13.1089 65.7918 15.1763C65.7918 17.2235 65.3357 19.0679 64.4236 20.7097C63.5115 22.3515 62.2042 23.6487 60.5016 24.6013C58.8193 25.5337 56.8532 25.9999 54.6034 25.9999H45.6344V4.47438H54.6034ZM53.9953 19.98C55.5155 19.98 56.7215 19.5645 57.6133 18.7335C58.5051 17.9025 58.951 16.7168 58.951 15.1763C58.951 13.6359 58.5051 12.4502 57.6133 11.6191C56.7215 10.7881 55.5155 10.3726 53.9953 10.3726H52.3839V19.98H53.9953ZM73.4584 4.47438V25.9999H66.7089V4.47438H73.4584ZM88.1816 11.832C87.9181 11.4063 87.5432 11.082 87.0567 10.8591C86.5702 10.6158 85.9825 10.4942 85.2933 10.4942C83.9961 10.4942 82.9928 10.9199 82.2834 11.7712C81.574 12.6022 81.2193 13.7474 81.2193 15.2067C81.2193 16.889 81.6145 18.1457 82.405 18.9767C83.1955 19.8078 84.4116 20.2233 86.0534 20.2233C87.6141 20.2233 88.8708 19.5949 89.8234 18.3383H84.442V13.565H95.4176V20.3145C94.4852 21.9157 93.1982 23.294 91.5564 24.4493C89.9146 25.5844 87.837 26.1519 85.3237 26.1519C83.0941 26.1519 81.1483 25.6958 79.4863 24.7837C77.8445 23.8514 76.5777 22.5542 75.6859 20.8921C74.8143 19.2301 74.3785 17.335 74.3785 15.2067C74.3785 13.0785 74.8143 11.1834 75.6859 9.52132C76.5777 7.85928 77.8445 6.57221 79.4863 5.66011C81.1281 4.72774 83.0536 4.26156 85.2629 4.26156C88.0803 4.26156 90.3707 4.94056 92.134 6.29858C93.9177 7.65659 94.9717 9.50105 95.296 11.832H88.1816ZM103.078 4.47438V25.9999H96.3283V4.47438H103.078ZM121.51 4.47438V9.82535H115.794V25.9999H109.045V9.82535H103.39V4.47438H121.51ZM135.624 22.7467H128.449L127.384 25.9999H120.301L128.175 4.47438H135.958L143.802 25.9999H136.688L135.624 22.7467ZM133.982 17.6694L132.036 11.68L130.09 17.6694H133.982ZM150.565 20.8921H157.071V25.9999H143.816V4.47438H150.565V20.8921ZM68.822 30.5847V49.9999H62.7616V40.3197L59.7725 49.9999H54.5622L51.5732 40.3197V49.9999H45.4854V30.5847H52.9443L57.2222 42.2393L61.3905 30.5847H68.822ZM82.6476 47.0657H76.1759L75.2161 49.9999H68.8267L75.9291 30.5847H82.9493L90.0243 49.9999H83.6074L82.6476 47.0657ZM81.1668 42.4861L79.4118 37.0839L77.6567 42.4861H81.1668ZM99.7987 49.9999L96.1515 43.0346H96.1241V49.9999H90.0363V30.5847H99.0857C100.658 30.5847 102.002 30.8681 103.117 31.4348C104.232 31.9833 105.064 32.742 105.612 33.7109C106.179 34.6615 106.462 35.7402 106.462 36.9468C106.462 38.2448 106.097 39.3965 105.365 40.402C104.653 41.4075 103.62 42.1296 102.267 42.5684L106.49 49.9999H99.7987ZM96.1241 38.976H98.5373C99.1223 38.976 99.5611 38.848 99.8536 38.5921C100.146 38.3179 100.292 37.8974 100.292 37.3307C100.292 36.8188 100.137 36.4166 99.8261 36.1241C99.5336 35.8316 99.104 35.6853 98.5373 35.6853H96.1241V38.976ZM118.773 49.9999L113.124 41.5812V49.9999H107.036V30.5847H113.124V38.7566L118.691 30.5847H125.574L118.883 39.881L126.013 49.9999H118.773ZM132.454 35.4385V37.8243H138.487V42.4038H132.454V45.1461H139.309V49.9999H126.366V30.5847H139.309V35.4385H132.454ZM155.479 30.5847V35.4111H150.324V49.9999H144.236V35.4111H139.135V30.5847H155.479ZM161.847 30.5847V49.9999H155.759V30.5847H161.847ZM181.845 49.9999H175.758L169.313 40.2375V49.9999H163.226V30.5847H169.313L175.758 40.5117V30.5847H181.845V49.9999ZM195.126 37.221C194.888 36.8371 194.55 36.5446 194.111 36.3435C193.673 36.1241 193.143 36.0144 192.521 36.0144C191.351 36.0144 190.446 36.3983 189.806 37.1661C189.166 37.9157 188.846 38.9486 188.846 40.2649C188.846 41.7823 189.203 42.9157 189.916 43.6653C190.629 44.4148 191.726 44.7896 193.207 44.7896C194.614 44.7896 195.748 44.2229 196.607 43.0894H191.753V38.7841H201.653V44.8719C200.812 46.3161 199.651 47.5593 198.17 48.6013C196.689 49.6251 194.815 50.137 192.548 50.137C190.537 50.137 188.782 49.7257 187.283 48.903C185.802 48.062 184.66 46.892 183.855 45.3929C183.069 43.8938 182.676 42.1845 182.676 40.2649C182.676 38.3453 183.069 36.636 183.855 35.1369C184.66 33.6378 185.802 32.4769 187.283 31.6542C188.764 30.8132 190.501 30.3928 192.494 30.3928C195.035 30.3928 197.101 31.0052 198.691 32.2301C200.3 33.4549 201.25 35.1186 201.543 37.221H195.126Z" fill="#9D9E9E"/>
</g>
</svg>
