<svg width="199" height="53" viewBox="0 0 199 53" fill="none" xmlns="http://www.w3.org/2000/svg">
<path d="M3.08612 16.8277C3.22328 11.387 4.80062 7.22642 7.81816 4.34604C10.8814 1.46567 15.202 0.0254787 20.7798 0.0254787C24.3917 0.0254787 27.4779 0.642702 30.0382 1.87715C32.5985 3.1116 34.5188 4.78038 35.7989 6.88352C37.1248 8.98665 37.7878 11.3641 37.7878 14.0159C37.7878 17.2163 37.0334 19.7309 35.5246 21.5597C34.0159 23.3428 32.3242 24.5544 30.4497 25.1945V25.4688C35.9361 27.5262 38.6793 31.3438 38.6793 36.9217C38.6793 39.8478 37.9935 42.431 36.6219 44.6713C35.2503 46.9116 33.2843 48.649 30.724 49.8834C28.2094 51.1178 25.2147 51.7351 21.74 51.7351C15.7963 51.7351 11.1329 50.3177 7.74958 47.4831C4.36628 44.6484 2.62891 40.2136 2.53747 34.1785H17.3508C17.2594 35.8244 17.488 37.0817 18.0366 37.9504C18.631 38.7734 19.6368 39.1849 21.0542 39.1849C21.8771 39.1849 22.5629 38.8877 23.1116 38.2933C23.6602 37.6532 23.9345 36.8303 23.9345 35.8244C23.9345 34.5443 23.5002 33.5841 22.6315 32.944C21.8086 32.2582 20.3912 31.9153 18.3795 31.9153H15.8421V19.6395H18.311C21.4199 19.8223 22.9744 18.5879 22.9744 15.9361C22.9744 14.7931 22.723 13.9473 22.22 13.3986C21.7628 12.85 21.1685 12.5757 20.4369 12.5757C18.7453 12.5757 17.8995 13.993 17.8995 16.8277H3.08612Z" fill="#6C6D6E"/>
<path d="M56.0588 12.0847C56.0588 13.0371 55.8385 13.9043 55.3978 14.6861C54.9571 15.4537 54.3032 16.065 53.4361 16.5199C52.5831 16.9748 51.5454 17.2023 50.3229 17.2023H48.4464V22H43.7126V6.9031H50.3229C52.1709 6.9031 53.5853 7.37221 54.5662 8.31044C55.5613 9.24866 56.0588 10.5067 56.0588 12.0847ZM49.7898 13.4707C50.7707 13.4707 51.2611 13.0087 51.2611 12.0847C51.2611 11.1607 50.7707 10.6986 49.7898 10.6986H48.4464V13.4707H49.7898ZM70.4609 6.9031V22H65.7271V16.1148H61.2279V22H56.4941V6.9031H61.2279V12.3405H65.7271V6.9031H70.4609ZM78.8811 22.1493C77.4596 22.1493 76.1517 21.8152 74.9576 21.1471C73.7777 20.4789 72.8395 19.5549 72.1429 18.375C71.4464 17.1951 71.0981 15.866 71.0981 14.3876C71.0981 12.9092 71.4464 11.58 72.1429 10.4001C72.8395 9.22023 73.7777 8.30333 74.9576 7.64941C76.1517 6.98128 77.4596 6.64722 78.8811 6.64722C80.3027 6.64722 81.6034 6.98128 82.7833 7.64941C83.9632 8.30333 84.8943 9.22023 85.5766 10.4001C86.2732 11.58 86.6215 12.9092 86.6215 14.3876C86.6215 15.866 86.2732 17.1951 85.5766 18.375C84.8943 19.5549 83.9561 20.4789 82.762 21.1471C81.5821 21.8152 80.2884 22.1493 78.8811 22.1493ZM78.8811 17.7353C79.8193 17.7353 80.5443 17.4368 81.0561 16.8398C81.5678 16.2285 81.8237 15.4111 81.8237 14.3876C81.8237 13.3498 81.5678 12.5325 81.0561 11.9354C80.5443 11.3241 79.8193 11.0185 78.8811 11.0185C77.9287 11.0185 77.1966 11.3241 76.6848 11.9354C76.1731 12.5325 75.9172 13.3498 75.9172 14.3876C75.9172 15.4111 76.1731 16.2285 76.6848 16.8398C77.1966 17.4368 77.9287 17.7353 78.8811 17.7353ZM99.1188 6.9031V10.656H95.11V22H90.3762V10.656H86.4101V6.9031H99.1188ZM106.693 22.1493C105.271 22.1493 103.964 21.8152 102.77 21.1471C101.59 20.4789 100.651 19.5549 99.9549 18.375C99.2583 17.1951 98.91 15.866 98.91 14.3876C98.91 12.9092 99.2583 11.58 99.9549 10.4001C100.651 9.22023 101.59 8.30333 102.77 7.64941C103.964 6.98128 105.271 6.64722 106.693 6.64722C108.115 6.64722 109.415 6.98128 110.595 7.64941C111.775 8.30333 112.706 9.22023 113.389 10.4001C114.085 11.58 114.433 12.9092 114.433 14.3876C114.433 15.866 114.085 17.1951 113.389 18.375C112.706 19.5549 111.768 20.4789 110.574 21.1471C109.394 21.8152 108.1 22.1493 106.693 22.1493ZM106.693 17.7353C107.631 17.7353 108.356 17.4368 108.868 16.8398C109.38 16.2285 109.636 15.4111 109.636 14.3876C109.636 13.3498 109.38 12.5325 108.868 11.9354C108.356 11.3241 107.631 11.0185 106.693 11.0185C105.741 11.0185 105.008 11.3241 104.497 11.9354C103.985 12.5325 103.729 13.3498 103.729 14.3876C103.729 15.4111 103.985 16.2285 104.497 16.8398C105.008 17.4368 105.741 17.7353 106.693 17.7353ZM120.981 22.1493C119.176 22.1493 117.683 21.7299 116.504 20.8912C115.338 20.0383 114.705 18.7944 114.606 17.1596H119.638C119.709 18.0268 120.093 18.4603 120.79 18.4603C121.045 18.4603 121.259 18.4035 121.429 18.2897C121.614 18.1618 121.706 17.9699 121.706 17.714C121.706 17.3586 121.515 17.0743 121.131 16.8611C120.747 16.6336 120.15 16.3778 119.34 16.0934C118.373 15.7523 117.57 15.4182 116.93 15.0912C116.305 14.7643 115.764 14.2881 115.309 13.6626C114.855 13.0371 114.634 12.2339 114.648 11.2531C114.648 10.2722 114.897 9.44057 115.395 8.75823C115.907 8.06167 116.596 7.53569 117.463 7.1803C118.344 6.82491 119.332 6.64722 120.427 6.64722C122.275 6.64722 123.739 7.07369 124.82 7.92662C125.914 8.77955 126.49 9.98076 126.547 11.5303H121.451C121.436 11.1038 121.33 10.7982 121.131 10.6134C120.932 10.4286 120.69 10.3362 120.406 10.3362C120.207 10.3362 120.043 10.4072 119.915 10.5494C119.787 10.6773 119.723 10.8621 119.723 11.1038C119.723 11.445 119.908 11.7293 120.278 11.9567C120.662 12.17 121.266 12.4329 122.09 12.7457C123.043 13.1011 123.825 13.4422 124.436 13.7692C125.061 14.0962 125.602 14.5511 126.056 15.1339C126.511 15.7167 126.739 16.4488 126.739 17.3302C126.739 18.2542 126.511 19.0858 126.056 19.825C125.602 20.55 124.941 21.1186 124.073 21.5309C123.206 21.9431 122.176 22.1493 120.981 22.1493ZM63.699 51L61.9416 49.3502C59.6941 50.6892 57.0521 51.3586 54.0155 51.3586C51.9593 51.3586 50.1661 51.0359 48.6359 50.3903C47.1296 49.7447 45.9699 48.8362 45.157 47.6646C44.3441 46.4691 43.9376 45.1063 43.9376 43.576C43.9376 42.1175 44.3082 40.7906 45.0494 39.5951C45.8145 38.3757 46.9502 37.3476 48.4565 36.5107C47.3567 35.1479 46.8068 33.7133 46.8068 32.207C46.8068 30.9159 47.1415 29.7323 47.811 28.6564C48.5044 27.5804 49.5086 26.7317 50.8236 26.11C52.1386 25.4644 53.7047 25.1417 55.5219 25.1417C57.3629 25.1417 58.929 25.4764 60.2201 26.1459C61.5112 26.7914 62.4796 27.6522 63.1251 28.7281C63.7707 29.8041 64.0935 30.9637 64.0935 32.207H56.8488C56.8488 31.7527 56.7173 31.418 56.4543 31.2028C56.1913 30.9637 55.8805 30.8441 55.5219 30.8441C55.1393 30.8441 54.8046 30.9637 54.5177 31.2028C54.2546 31.418 54.1231 31.7288 54.1231 32.1352C54.1231 32.9004 54.6492 33.785 55.7012 34.7892L61.4754 40.3841C61.8101 39.7385 62.109 39.0093 62.372 38.1964L62.4796 37.8736H70.1905L69.8318 38.8061C68.9232 41.197 67.7995 43.325 66.4605 45.1899L72.4499 51H63.699ZM54.5894 45.0823C55.4501 45.0823 56.2511 44.9508 56.9923 44.6878L52.7603 40.7427C52.3538 41.0297 52.043 41.3644 51.8278 41.7469C51.6365 42.1056 51.5409 42.4762 51.5409 42.8587C51.5409 43.4804 51.8039 44.0064 52.3299 44.4368C52.8798 44.8672 53.633 45.0823 54.5894 45.0823ZM98.0233 25.6079L89.4875 51H79.1944L70.6587 25.6079H79.1227L84.3589 43.0739L89.5593 25.6079H98.0233ZM105.974 25.6079V51H98.0124V25.6079H105.974ZM118.357 25.6079C121.011 25.6079 123.33 26.1459 125.315 27.2218C127.323 28.2977 128.865 29.7921 129.941 31.7049C131.017 33.6176 131.555 35.7934 131.555 38.2322C131.555 40.6471 131.017 42.8229 129.941 44.7596C128.865 46.6963 127.323 48.2265 125.315 49.3502C123.33 50.4501 121.011 51 118.357 51H107.777V25.6079H118.357ZM117.64 43.8988C119.433 43.8988 120.856 43.4087 121.908 42.4284C122.96 41.4481 123.486 40.0494 123.486 38.2322C123.486 36.4151 122.96 35.0164 121.908 34.0361C120.856 33.0558 119.433 32.5656 117.64 32.5656H115.739V43.8988H117.64ZM140.599 31.9559V35.0761H148.489V41.0655H140.599V44.652H149.565V51H132.637V25.6079H149.565V31.9559H140.599ZM163.146 51.2511C160.755 51.2511 158.555 50.6892 156.547 49.5654C154.562 48.4417 152.984 46.8875 151.813 44.903C150.641 42.9185 150.055 40.683 150.055 38.1964C150.055 35.7097 150.641 33.4742 151.813 31.4897C152.984 29.5052 154.562 27.963 156.547 26.8632C158.555 25.7394 160.755 25.1775 163.146 25.1775C165.537 25.1775 167.724 25.7394 169.709 26.8632C171.693 27.963 173.26 29.5052 174.407 31.4897C175.579 33.4742 176.165 35.7097 176.165 38.1964C176.165 40.683 175.579 42.9185 174.407 44.903C173.26 46.8875 171.682 48.4417 169.673 49.5654C167.689 50.6892 165.513 51.2511 163.146 51.2511ZM163.146 43.8271C164.724 43.8271 165.943 43.325 166.804 42.3208C167.665 41.2927 168.095 39.9179 168.095 38.1964C168.095 36.4509 167.665 35.0761 166.804 34.0719C165.943 33.0438 164.724 32.5298 163.146 32.5298C161.544 32.5298 160.312 33.0438 159.452 34.0719C158.591 35.0761 158.161 36.4509 158.161 38.1964C158.161 39.9179 158.591 41.2927 159.452 42.3208C160.312 43.325 161.544 43.8271 163.146 43.8271ZM187.178 51.2511C184.142 51.2511 181.631 50.5457 179.647 49.135C177.686 47.7005 176.622 45.6084 176.455 42.8587H184.919C185.038 44.3172 185.684 45.0465 186.855 45.0465C187.286 45.0465 187.644 44.9508 187.931 44.7596C188.242 44.5444 188.397 44.2216 188.397 43.7912C188.397 43.1935 188.075 42.7153 187.429 42.3566C186.784 41.9741 185.779 41.5437 184.417 41.0655C182.791 40.4917 181.44 39.9298 180.364 39.3799C179.312 38.83 178.403 38.029 177.638 36.977C176.873 35.9249 176.502 34.574 176.526 32.9243C176.526 31.2745 176.945 29.8758 177.782 28.7281C178.642 27.5565 179.802 26.6719 181.26 26.0741C182.743 25.4764 184.405 25.1775 186.246 25.1775C189.354 25.1775 191.817 25.8948 193.634 27.3294C195.475 28.764 196.443 30.7843 196.539 33.3905H187.967C187.943 32.6732 187.764 32.1592 187.429 31.8483C187.094 31.5375 186.688 31.3821 186.21 31.3821C185.875 31.3821 185.6 31.5016 185.385 31.7407C185.17 31.9559 185.062 32.2668 185.062 32.6732C185.062 33.247 185.373 33.7252 185.995 34.1078C186.64 34.4664 187.656 34.9088 189.043 35.4348C190.645 36.0325 191.96 36.6064 192.988 37.1563C194.04 37.7062 194.949 38.4713 195.714 39.4516C196.479 40.4319 196.862 41.6633 196.862 43.1457C196.862 44.6998 196.479 46.0985 195.714 47.3418C194.949 48.5612 193.837 49.5176 192.378 50.211C190.92 50.9044 189.187 51.2511 187.178 51.2511Z" fill="#6C6D6E"/>
</svg>
