<svg width="135" height="41" viewBox="0 0 135 41" fill="none" xmlns="http://www.w3.org/2000/svg">
<g clip-path="url(#clip0_0_8)">
<path d="M66.4039 16.1211C66.1197 15.8369 65.5828 15.679 64.825 15.679H63.246V28.7685H57.4355V11.2422H66.846C68.2513 11.2422 69.3723 11.4317 70.225 11.8264C71.0776 12.2211 71.6934 12.8369 72.0881 13.6738C72.4829 14.5106 72.6723 15.6317 72.6723 17.0369V19.9738H66.8302V17.6843C66.846 16.9264 66.6881 16.4211 66.4039 16.1211Z" fill="white"/>
<path d="M76.6671 26.4947C75.1671 24.9947 74.4092 22.8315 74.4092 19.9736C74.4092 17.1473 75.1671 14.9683 76.6671 13.4683C78.1671 11.9683 80.346 11.2104 83.1881 11.2104H90.6565V15.521H84.0408C82.8092 15.521 81.925 15.7104 81.3723 16.0894C80.8197 16.4683 80.4881 17.0368 80.3776 17.8104H90.5144V22.0578H80.3776C80.4565 22.7999 80.7881 23.3683 81.3565 23.7947C81.925 24.221 82.825 24.4262 84.0408 24.4262H90.7986V28.7526H83.1881C80.346 28.7683 78.1671 28.0104 76.6671 26.4947Z" fill="white"/>
<path d="M106.02 16.358C105.562 15.9159 104.835 15.679 103.825 15.679H100.162V28.7685H94.3355V11.2422H105.183C106.888 11.2422 108.278 11.4948 109.367 12.0159C110.441 12.5369 111.23 13.3264 111.751 14.3843C112.272 15.458 112.525 16.8475 112.525 18.5685V28.7843H106.699V18.5527C106.699 17.5422 106.478 16.8159 106.02 16.358Z" fill="white"/>
<path d="M117.593 26.4948C116.093 24.9948 115.335 22.8316 115.335 19.9737C115.335 17.1474 116.093 14.9685 117.593 13.4685C119.093 11.9685 121.272 11.2106 124.114 11.2106H128.362V4.89478H134.188V28.7685H124.114C121.272 28.7685 119.109 28.0106 117.593 26.4948ZM122.378 16.5948C121.667 17.3053 121.304 18.4421 121.304 19.9737C121.304 21.5053 121.667 22.6421 122.378 23.3527C123.088 24.0632 124.209 24.4264 125.757 24.4264H128.346V15.5211H125.757C124.225 15.5211 123.088 15.8842 122.378 16.5948Z" fill="white"/>
<path d="M38.8039 32.0526C37.2565 32.0526 35.9934 30.8053 35.9934 29.2737C35.9934 29.1158 36.0091 28.9579 36.0249 28.8158C36.0723 28.5 36.167 28.2158 36.3249 27.9316L36.5144 27.5842C36.6565 27.3158 36.7986 27.0316 36.9249 26.7474C36.9407 26.7158 36.9565 26.6842 36.9723 26.6526C37.0039 26.5737 37.0513 26.4947 37.067 26.4158C37.1144 26.3211 37.146 26.2263 37.1934 26.1316C37.2091 26.0842 37.2407 26.0369 37.2565 25.9895C37.3197 25.8474 37.3828 25.6895 37.4302 25.5474C38.0302 23.9684 38.4249 22.3105 38.5828 20.6211C38.5986 20.4316 38.6144 20.2421 38.6302 20.0526C38.646 19.8632 38.646 19.6737 38.6618 19.4842C38.6776 19.2947 38.6776 19.1053 38.6776 18.9316C38.6776 18.6316 38.6618 18.3316 38.6618 18.0158C38.646 17.5737 38.5986 17.1474 38.5513 16.7211C38.5355 16.6263 38.5197 16.5158 38.5197 16.4211C38.5039 16.3737 38.5039 16.2947 38.4881 16.2474C38.4723 16.1053 38.4407 15.9632 38.4249 15.8211C38.3776 15.5369 38.3302 15.2526 38.2513 14.9684C38.2197 14.8263 38.1881 14.6842 38.1565 14.5421C38.046 14.1158 37.9355 13.6895 37.7934 13.2632C37.7144 12.9947 37.6197 12.7421 37.5249 12.4737C37.4776 12.3316 37.4302 12.2053 37.367 12.0632C37.2407 11.7632 37.1302 11.479 36.9881 11.179C36.9723 11.1632 36.9723 11.1632 36.9723 11.1474C36.1828 9.42633 35.1249 7.83159 33.8618 6.44212C32.5039 4.94212 30.9249 3.67896 29.1565 2.66843C28.3986 2.24212 27.6249 1.86317 26.8039 1.54738C26.6776 1.5158 26.5355 1.45264 26.4091 1.40528C26.1407 1.31054 25.8565 1.20001 25.5881 1.12106C25.446 1.0737 25.3039 1.04212 25.1776 0.994749C25.0355 0.94738 24.8934 0.915802 24.767 0.868433C24.4039 0.789486 24.0723 0.694749 23.7091 0.631591C23.5986 0.600012 23.4881 0.584223 23.3618 0.552644C23.2355 0.521065 23.1249 0.505275 22.9986 0.489486C22.9039 0.473696 22.8091 0.457907 22.7144 0.442117C22.6197 0.426328 22.5249 0.410538 22.4302 0.394749C22.2249 0.36317 22.0197 0.347381 21.8144 0.315802C21.6881 0.300012 21.5618 0.284223 21.4197 0.284223C21.2144 0.268433 21.0091 0.252644 20.8039 0.236854C20.1407 0.205275 19.4618 0.205275 18.8144 0.221065C18.6723 0.236854 18.5302 0.236854 18.3723 0.252644C17.9776 0.284223 17.5986 0.315802 17.2197 0.378959C17.1407 0.394749 17.046 0.394749 16.967 0.410538C16.746 0.442117 16.5249 0.489486 16.3039 0.521065C16.2249 0.536854 16.146 0.552644 16.067 0.568433C15.9407 0.600012 15.846 0.615802 15.7355 0.631591C15.5934 0.66317 15.467 0.694749 15.3407 0.726328C15.0565 0.805275 14.7565 0.884223 14.4723 0.96317C14.3302 1.01054 14.2039 1.05791 14.0776 1.08949C13.9197 1.13685 13.7618 1.18422 13.6039 1.24738C13.4934 1.27896 13.3828 1.31054 13.2723 1.35791C13.1302 1.40528 12.9723 1.46843 12.8302 1.53159C8.99336 3.03159 5.7723 5.74738 3.64073 9.18949C3.64073 9.18949 3.64073 9.18949 3.64073 9.20527C2.06178 11.7632 1.06704 14.7158 0.893357 17.8895C0.498621 24.979 4.14599 31.279 9.73546 34.7526C9.75125 34.7684 9.78283 34.7842 9.81441 34.8C10.8881 35.4474 12.0565 35.7474 13.1776 35.7474C16.6039 35.7474 19.7934 33 19.7934 29.1947C19.6986 29.1947 19.6197 29.1947 19.5249 29.179C19.3513 29.179 19.1776 29.1632 19.0039 29.1474C18.8302 29.1316 18.6723 29.1158 18.4986 29.1H18.4828C13.367 28.4526 9.40388 24.1263 9.40388 18.9158C9.40388 16.0895 10.5723 13.5158 12.4513 11.6526C14.3302 9.78949 16.9355 8.63685 19.8091 8.63685C19.9039 8.63685 19.9828 8.63685 20.0776 8.65264C20.1249 8.65264 20.1723 8.65264 20.2039 8.66843C20.346 8.68422 20.4723 8.68422 20.5986 8.68422C20.867 8.70001 21.1197 8.73159 21.3723 8.77896C21.4513 8.79475 21.546 8.81054 21.6249 8.82633C21.6407 8.82633 21.6407 8.82633 21.6407 8.82633C21.7197 8.84212 21.7986 8.85791 21.8776 8.8737C22.0513 8.90527 22.2091 8.95264 22.3828 8.98422C22.5565 9.03159 22.7144 9.07896 22.8723 9.12633C22.9513 9.14212 23.0302 9.1737 23.1091 9.20527C23.1723 9.22106 23.2197 9.23685 23.2828 9.25264C23.346 9.26843 23.3776 9.28422 23.4407 9.30001C23.4565 9.3158 23.4723 9.3158 23.4723 9.3158C23.5355 9.34738 23.5986 9.36317 23.6618 9.39475C24.4197 9.69475 25.1302 10.0895 25.7776 10.5474C25.8407 10.5947 25.9197 10.6421 25.9828 10.6895C26.2039 10.8474 26.3934 11.0053 26.5986 11.179C26.6618 11.2263 26.7091 11.2737 26.7565 11.3211C26.8828 11.4316 26.9934 11.5421 27.1197 11.6526C27.1828 11.7 27.246 11.779 27.2934 11.8263C27.4039 11.9526 27.5144 12.0632 27.6249 12.1895C27.6407 12.2053 27.6565 12.2369 27.6881 12.2526C27.7197 12.2842 27.7513 12.3158 27.767 12.3474C27.846 12.4421 27.9407 12.5526 28.0197 12.6474C28.0828 12.7263 28.146 12.7895 28.1934 12.8684C28.2723 12.9632 28.3355 13.0579 28.3986 13.1684C28.446 13.2316 28.4934 13.3105 28.5407 13.3737C28.5881 13.4526 28.6355 13.5316 28.6828 13.6105C28.7144 13.6579 28.746 13.7053 28.7618 13.7526C28.8249 13.8632 28.8881 13.9737 28.9513 14.0842C29.0144 14.2105 29.0776 14.3369 29.1407 14.4632C29.2197 14.6053 29.2828 14.7632 29.346 14.9053C29.4091 15.0316 29.4565 15.1579 29.5039 15.3C29.5355 15.379 29.567 15.4421 29.5828 15.5053C29.5986 15.5526 29.6144 15.6158 29.646 15.6632C29.8039 16.1211 29.9302 16.5947 30.0091 17.0842C30.0249 17.1632 30.0407 17.2421 30.0565 17.3369C30.0881 17.5105 30.1039 17.6684 30.1197 17.8579C30.1355 17.9369 30.1355 18 30.1355 18.079C30.1513 18.3474 30.167 18.6316 30.167 18.9158C30.167 19.0263 30.167 19.1211 30.1512 19.2316C30.1355 19.4211 30.1355 19.6105 30.1197 19.7842C30.1039 19.879 30.1039 19.9895 30.0881 20.1C30.0723 20.179 30.0723 20.2737 30.0565 20.3526C29.8986 21.5053 29.5355 22.6105 28.9828 23.6526L28.8407 23.9053C28.8091 23.9842 28.7618 24.0474 28.7144 24.1263C27.8934 25.7053 27.4513 27.4737 27.4513 29.2737C27.4513 35.4474 32.5355 40.4684 38.7723 40.4684C45.0249 40.4684 50.0934 35.4474 50.0934 29.2737H41.5828C41.6144 30.8211 40.3513 32.0526 38.8039 32.0526Z" fill="white"/>
<path d="M50.125 4.42105V0H41.5986V28.7684H50.125V12.8368H56.2197V4.42105H50.125Z" fill="white"/>
</g>
<defs>
<clipPath id="clip0_0_8">
<rect width="133.311" height="40.4526" fill="white" transform="translate(0.861816)"/>
</clipPath>
</defs>
</svg>
