<svg width="725" height="528" viewBox="0 0 725 528" fill="none" xmlns="http://www.w3.org/2000/svg">
<g opacity="0.2">
<path d="M483.12 403.461C464.765 403.461 449.782 388.62 449.782 370.399C449.782 368.52 449.969 366.642 450.157 364.951C450.718 361.194 451.842 357.812 453.715 354.431L455.963 350.298C457.648 347.105 459.334 343.723 460.832 340.342C461.02 339.966 461.207 339.591 461.394 339.215C461.769 338.276 462.331 337.336 462.518 336.397C463.08 335.27 463.454 334.143 464.016 333.016C464.203 332.452 464.578 331.889 464.765 331.325C465.514 329.634 466.264 327.756 466.826 326.065C473.943 307.28 478.625 287.555 480.498 267.455C480.685 265.201 480.872 262.946 481.06 260.692C481.247 258.438 481.247 256.184 481.434 253.929C481.622 251.675 481.622 249.421 481.622 247.354C481.622 243.785 481.434 240.216 481.434 236.459C481.247 231.199 480.685 226.127 480.123 221.055C479.936 219.928 479.749 218.613 479.749 217.486C479.561 216.922 479.561 215.983 479.374 215.419C479.187 213.729 478.812 212.038 478.625 210.347C478.063 206.966 477.501 203.585 476.565 200.203C476.19 198.512 475.816 196.822 475.441 195.131C474.13 190.059 472.819 184.987 471.133 179.915C470.197 176.721 469.073 173.716 467.949 170.522C467.387 168.832 466.826 167.329 466.076 165.638C464.578 162.069 463.267 158.688 461.581 155.118C461.394 154.93 461.394 154.93 461.394 154.743C452.03 134.267 439.481 115.293 424.498 98.7622C408.39 80.9161 389.661 65.8878 368.685 53.8652C359.695 48.7931 350.517 44.2847 340.778 40.5276C339.28 40.1519 337.594 39.4005 336.096 38.8369C332.912 37.7098 329.541 36.3948 326.357 35.4555C324.671 34.892 322.985 34.5163 321.487 33.9527C319.801 33.3891 318.116 33.0134 316.618 32.4499C312.31 31.5106 308.377 30.3835 304.069 29.6321C302.758 29.2564 301.447 29.0685 299.949 28.6928C298.45 28.3171 297.139 28.1292 295.641 27.9414C294.517 27.7535 293.393 27.5657 292.27 27.3778C291.146 27.19 290.022 27.0021 288.898 26.8143C286.464 26.4386 284.029 26.2507 281.594 25.875C280.096 25.6871 278.597 25.4993 276.912 25.4993C274.477 25.3114 272.042 25.1236 269.607 24.9357C261.741 24.56 253.687 24.56 246.009 24.7479C244.323 24.9357 242.637 24.9357 240.764 25.1236C236.082 25.4993 231.587 25.875 227.092 26.6264C226.156 26.8143 225.032 26.8143 224.095 27.0021C221.473 27.3778 218.851 27.9414 216.229 28.3171C215.293 28.5049 214.356 28.6928 213.42 28.8807C211.921 29.2564 210.798 29.4442 209.487 29.6321C207.801 30.0078 206.303 30.3835 204.804 30.7592C201.433 31.6985 197.875 32.6377 194.503 33.577C192.818 34.1406 191.319 34.7041 189.821 35.0798C187.948 35.6434 186.075 36.2069 184.202 36.9584C182.891 37.3341 181.58 37.7098 180.269 38.2733C178.583 38.8369 176.711 39.5883 175.025 40.3397C129.513 58.1858 91.3055 90.4967 66.0211 131.449C66.0211 131.449 66.0211 131.449 66.0211 131.637C47.2919 162.069 35.4925 197.198 33.4323 234.956C28.75 319.302 72.0144 394.256 138.316 435.584C138.503 435.772 138.878 435.96 139.252 436.147C151.988 443.849 165.848 447.419 179.145 447.419C219.788 447.419 257.621 414.732 257.621 369.459C256.497 369.459 255.56 369.459 254.437 369.271C252.376 369.271 250.316 369.084 248.256 368.896C246.196 368.708 244.323 368.52 242.263 368.332H242.075C181.393 360.63 134.383 309.158 134.383 247.167C134.383 213.541 148.242 182.921 170.53 160.754C192.818 138.587 223.721 124.874 257.808 124.874C258.932 124.874 259.868 124.874 260.992 125.062C261.554 125.062 262.116 125.062 262.49 125.25C264.176 125.437 265.674 125.437 267.172 125.437C270.356 125.625 273.353 126.001 276.35 126.565C277.286 126.752 278.41 126.94 279.346 127.128C279.534 127.128 279.534 127.128 279.534 127.128C280.47 127.316 281.407 127.504 282.343 127.692C284.403 128.067 286.276 128.631 288.336 129.007C290.397 129.57 292.27 130.134 294.142 130.697C295.079 130.885 296.015 131.261 296.952 131.637C297.701 131.824 298.263 132.012 299.012 132.2C299.761 132.388 300.136 132.576 300.885 132.764C301.072 132.952 301.26 132.952 301.26 132.952C302.009 133.327 302.758 133.515 303.507 133.891C312.497 137.46 320.925 142.156 328.604 147.604C329.353 148.168 330.29 148.731 331.039 149.295C333.661 151.173 335.909 153.052 338.343 155.118C339.093 155.682 339.654 156.245 340.216 156.809C341.715 158.124 343.026 159.439 344.524 160.754C345.273 161.317 346.022 162.257 346.584 162.82C347.895 164.323 349.206 165.638 350.517 167.141C350.705 167.329 350.892 167.705 351.266 167.892C351.641 168.268 352.016 168.644 352.203 169.019C353.139 170.147 354.263 171.462 355.2 172.589C355.949 173.528 356.698 174.279 357.26 175.219C358.196 176.346 358.945 177.473 359.695 178.788C360.257 179.539 360.818 180.479 361.38 181.23C361.942 182.169 362.504 183.109 363.066 184.048C363.44 184.611 363.815 185.175 364.002 185.738C364.751 187.053 365.501 188.368 366.25 189.683C366.999 191.186 367.748 192.689 368.497 194.192C369.434 195.883 370.183 197.761 370.932 199.452C371.681 200.955 372.243 202.457 372.805 204.148C373.18 205.087 373.554 205.839 373.742 206.59C373.929 207.154 374.116 207.905 374.491 208.469C376.364 213.917 377.862 219.552 378.798 225.376C378.986 226.315 379.173 227.254 379.36 228.381C379.735 230.448 379.922 232.326 380.109 234.58C380.297 235.52 380.297 236.271 380.297 237.21C380.484 240.404 380.671 243.785 380.671 247.167C380.671 248.482 380.671 249.609 380.484 250.924C380.297 253.178 380.297 255.432 380.109 257.499C379.922 258.626 379.922 259.941 379.735 261.256C379.548 262.195 379.548 263.322 379.36 264.261C377.487 277.975 373.18 291.124 366.624 303.523L364.939 306.528C364.564 307.468 364.002 308.219 363.44 309.158C353.701 327.944 348.457 348.983 348.457 370.399C348.457 443.849 408.765 503.587 482.745 503.587C556.913 503.587 617.034 443.849 617.034 370.399H516.083C516.458 388.808 501.475 403.461 483.12 403.461Z" fill="white"/>
<path d="M619.712 77.1489V24.6245H519.516V366.408H619.712V177.133H691.333V77.1489H619.712Z" fill="white"/>
</g>
<g clip-path="url(#clip0_293_894)">
<path d="M540.104 151.88C521.634 161.546 479.166 187.595 457 214.398C513.052 226.308 628.341 230.469 641 151.88C623.191 145.179 578.082 135.808 540.104 151.88Z" fill="#FFD439"/>
</g>
<g filter="url(#filter0_d_293_894)">
<path d="M206.555 193.06V232H194.4V212.585L188.405 232H177.955L171.96 212.585V232H159.75V193.06H174.71L183.29 216.435L191.65 193.06H206.555ZM228.289 232.385C224.623 232.385 221.249 231.523 218.169 229.8C215.126 228.077 212.706 225.693 210.909 222.65C209.113 219.607 208.214 216.178 208.214 212.365C208.214 208.552 209.113 205.123 210.909 202.08C212.706 199.037 215.126 196.672 218.169 194.985C221.249 193.262 224.623 192.4 228.289 192.4C231.956 192.4 235.311 193.262 238.354 194.985C241.398 196.672 243.799 199.037 245.559 202.08C247.356 205.123 248.254 208.552 248.254 212.365C248.254 216.178 247.356 219.607 245.559 222.65C243.799 225.693 241.379 228.077 238.299 229.8C235.256 231.523 231.919 232.385 228.289 232.385ZM228.289 221C230.709 221 232.579 220.23 233.899 218.69C235.219 217.113 235.879 215.005 235.879 212.365C235.879 209.688 235.219 207.58 233.899 206.04C232.579 204.463 230.709 203.675 228.289 203.675C225.833 203.675 223.944 204.463 222.624 206.04C221.304 207.58 220.644 209.688 220.644 212.365C220.644 215.005 221.304 217.113 222.624 218.69C223.944 220.23 225.833 221 228.289 221ZM266.134 193.06C270.204 193.06 273.761 193.885 276.804 195.535C279.884 197.185 282.249 199.477 283.899 202.41C285.549 205.343 286.374 208.68 286.374 212.42C286.374 216.123 285.549 219.46 283.899 222.43C282.249 225.4 279.884 227.747 276.804 229.47C273.761 231.157 270.204 232 266.134 232H249.909V193.06H266.134ZM265.034 221.11C267.784 221.11 269.966 220.358 271.579 218.855C273.193 217.352 273.999 215.207 273.999 212.42C273.999 209.633 273.193 207.488 271.579 205.985C269.966 204.482 267.784 203.73 265.034 203.73H262.119V221.11H265.034ZM300.243 202.795V207.58H312.343V216.765H300.243V222.265H313.993V232H288.033V193.06H313.993V202.795H300.243ZM328.055 222.76H339.825V232H315.845V193.06H328.055V222.76ZM353.127 193.06V232H340.917V193.06H353.127ZM393.237 232H381.027L368.102 212.42V232H355.892V193.06H368.102L381.027 212.97V193.06H393.237V232ZM419.873 206.37C419.396 205.6 418.718 205.013 417.838 204.61C416.958 204.17 415.895 203.95 414.648 203.95C412.301 203.95 410.486 204.72 409.203 206.26C407.92 207.763 407.278 209.835 407.278 212.475C407.278 215.518 407.993 217.792 409.423 219.295C410.853 220.798 413.053 221.55 416.023 221.55C418.846 221.55 421.12 220.413 422.843 218.14H413.108V209.505H432.963V221.715C431.276 224.612 428.948 227.105 425.978 229.195C423.008 231.248 419.25 232.275 414.703 232.275C410.67 232.275 407.15 231.45 404.143 229.8C401.173 228.113 398.881 225.767 397.268 222.76C395.691 219.753 394.903 216.325 394.903 212.475C394.903 208.625 395.691 205.197 397.268 202.19C398.881 199.183 401.173 196.855 404.143 195.205C407.113 193.518 410.596 192.675 414.593 192.675C419.69 192.675 423.833 193.903 427.023 196.36C430.25 198.817 432.156 202.153 432.743 206.37H419.873ZM181.783 293.531C175.366 293.531 170.061 292.04 165.867 289.059C161.724 286.027 159.476 281.606 159.122 275.796H177.008C177.261 278.878 178.625 280.419 181.101 280.419C182.011 280.419 182.768 280.217 183.375 279.813C184.032 279.358 184.36 278.676 184.36 277.766C184.36 276.503 183.678 275.493 182.314 274.735C180.949 273.926 178.827 273.017 175.947 272.006C172.512 270.794 169.657 269.606 167.383 268.444C165.16 267.282 163.24 265.589 161.623 263.366C160.006 261.143 159.223 258.288 159.274 254.802C159.274 251.316 160.158 248.36 161.926 245.935C163.745 243.459 166.196 241.589 169.278 240.326C172.411 239.063 175.922 238.432 179.813 238.432C186.381 238.432 191.585 239.947 195.425 242.979C199.316 246.011 201.362 250.28 201.564 255.787H183.451C183.4 254.272 183.021 253.185 182.314 252.528C181.606 251.872 180.747 251.543 179.737 251.543C179.029 251.543 178.448 251.796 177.994 252.301C177.539 252.756 177.312 253.413 177.312 254.272C177.312 255.484 177.968 256.495 179.282 257.303C180.646 258.061 182.794 258.996 185.724 260.107C189.109 261.371 191.888 262.583 194.061 263.745C196.284 264.907 198.204 266.524 199.821 268.596C201.438 270.667 202.246 273.269 202.246 276.402C202.246 279.686 201.438 282.642 199.821 285.269C198.204 287.846 195.855 289.867 192.773 291.333C189.691 292.798 186.027 293.531 181.783 293.531ZM221.194 252.756V259.349H237.867V272.006H221.194V279.585H240.141V293H204.368V239.341H240.141V252.756H221.194ZM269.673 293L259.593 273.749H259.518V293H242.692V239.341H267.703C272.048 239.341 275.762 240.124 278.844 241.691C281.926 243.206 284.225 245.303 285.741 247.981C287.307 250.608 288.09 253.589 288.09 256.924C288.09 260.512 287.08 263.695 285.059 266.474C283.088 269.253 280.233 271.248 276.495 272.461L288.166 293H269.673ZM259.518 262.533H266.187C267.804 262.533 269.017 262.179 269.825 261.472C270.633 260.714 271.038 259.552 271.038 257.985C271.038 256.571 270.608 255.459 269.749 254.651C268.941 253.842 267.753 253.438 266.187 253.438H259.518V262.533ZM343.714 239.341L325.676 293H303.924L285.887 239.341H303.773L314.838 276.251L325.828 239.341H343.714ZM360.516 239.341V293H343.691V239.341H360.516ZM362.81 266.095C362.81 260.789 363.871 256.065 365.993 251.922C368.166 247.779 371.248 244.571 375.239 242.297C379.231 239.973 383.93 238.811 389.336 238.811C393.985 238.811 398.128 239.695 401.766 241.463C405.454 243.181 408.435 245.632 410.709 248.815C413.033 251.998 414.574 255.712 415.332 259.956H397.597C396.789 258.187 395.627 256.823 394.111 255.863C392.646 254.853 390.953 254.347 389.033 254.347C386.204 254.347 383.955 255.408 382.288 257.531C380.671 259.653 379.862 262.507 379.862 266.095C379.862 269.682 380.671 272.537 382.288 274.659C383.955 276.781 386.204 277.842 389.033 277.842C390.953 277.842 392.646 277.362 394.111 276.402C395.627 275.392 396.789 274.002 397.597 272.234H415.332C414.574 276.478 413.033 280.192 410.709 283.375C408.435 286.558 405.454 289.034 401.766 290.802C398.128 292.52 393.985 293.379 389.336 293.379C383.93 293.379 379.231 292.242 375.239 289.968C371.248 287.644 368.166 284.411 365.993 280.267C363.871 276.124 362.81 271.4 362.81 266.095ZM434.426 252.756V259.349H451.099V272.006H434.426V279.585H453.373V293H417.6V239.341H453.373V252.756H434.426ZM476.918 293.531C470.501 293.531 465.196 292.04 461.002 289.059C456.859 286.027 454.611 281.606 454.257 275.796H472.143C472.396 278.878 473.76 280.419 476.236 280.419C477.145 280.419 477.903 280.217 478.51 279.813C479.166 279.358 479.495 278.676 479.495 277.766C479.495 276.503 478.813 275.493 477.449 274.735C476.084 273.926 473.962 273.017 471.082 272.006C467.646 270.794 464.792 269.606 462.518 268.444C460.295 267.282 458.375 265.589 456.758 263.366C455.141 261.143 454.358 258.288 454.409 254.802C454.409 251.316 455.293 248.36 457.061 245.935C458.88 243.459 461.331 241.589 464.413 240.326C467.545 239.063 471.057 238.432 474.947 238.432C481.516 238.432 486.72 239.947 490.56 242.979C494.451 246.011 496.497 250.28 496.699 255.787H478.585C478.535 254.272 478.156 253.185 477.449 252.528C476.741 251.872 475.882 251.543 474.872 251.543C474.164 251.543 473.583 251.796 473.129 252.301C472.674 252.756 472.446 253.413 472.446 254.272C472.446 255.484 473.103 256.495 474.417 257.303C475.781 258.061 477.929 258.996 480.859 260.107C484.244 261.371 487.023 262.583 489.196 263.745C491.419 264.907 493.339 266.524 494.956 268.596C496.573 270.667 497.381 273.269 497.381 276.402C497.381 279.686 496.573 282.642 494.956 285.269C493.339 287.846 490.99 289.867 487.907 291.333C484.825 292.798 481.162 293.531 476.918 293.531Z" fill="white"/>
</g>
<defs>
<filter id="filter0_d_293_894" x="155.122" y="192.4" width="346.259" height="109.131" filterUnits="userSpaceOnUse" color-interpolation-filters="sRGB">
<feFlood flood-opacity="0" result="BackgroundImageFix"/>
<feColorMatrix in="SourceAlpha" type="matrix" values="0 0 0 0 0 0 0 0 0 0 0 0 0 0 0 0 0 0 127 0" result="hardAlpha"/>
<feOffset dy="4"/>
<feGaussianBlur stdDeviation="2"/>
<feComposite in2="hardAlpha" operator="out"/>
<feColorMatrix type="matrix" values="0 0 0 0 0 0 0 0 0 0 0 0 0 0 0 0 0 0 0.25 0"/>
<feBlend mode="normal" in2="BackgroundImageFix" result="effect1_dropShadow_293_894"/>
<feBlend mode="normal" in="SourceGraphic" in2="effect1_dropShadow_293_894" result="shape"/>
</filter>
<clipPath id="clip0_293_894">
<rect width="184" height="78" fill="white" transform="translate(457 143)"/>
</clipPath>
</defs>
</svg>
